<svg xmlns="http://www.w3.org/2000/svg" xmlns:xlink="http://www.w3.org/1999/xlink" viewBox="0 0 303.038 37.9791"><defs><style>.cls-1{fill:#eadfe2;}.cls-2{fill:#e9486c;}.cls-3{fill:#425ca7;}.cls-4{fill:url(#Dégradé_sans_nom_16);}</style><linearGradient id="Dégradé_sans_nom_16" y1="15.3282" x2="50.7825" y2="15.3282" gradientUnits="userSpaceOnUse"><stop offset="0" stop-color="#e9486c"/><stop offset="1" stop-color="#425ca7"/></linearGradient></defs><g id="Calque_2" data-name="Calque 2"><g id="Calque_1-2" data-name="Calque 1"><path class="cls-1" d="M95.1062,3.09V28.17h-5.03V11.8576L83.3575,28.17h-3.81L72.7936,11.8576V28.17h-5.03V3.09h5.712L81.4517,21.738,89.43,3.09Z"/><path class="cls-1" d="M118.8571,8.2637V28.17h-5.066V25.6549a6.6426,6.6426,0,0,1-2.5339,2.03,7.8689,7.8689,0,0,1-3.3958.737,8.4327,8.4327,0,0,1-4.1328-.9886,6.9545,6.9545,0,0,1-2.8194-2.91,9.6056,9.6056,0,0,1-1.0243-4.5807V8.2637h5.03V19.2229A5.162,5.162,0,0,0,106.1,22.87a4.7829,4.7829,0,0,0,6.5043,0,5.1626,5.1626,0,0,0,1.1867-3.6474V8.2637Z"/><path class="cls-1" d="M127.0477,27.6133a7.749,7.749,0,0,1-3.0711-2.3894,6.0509,6.0509,0,0,1-1.24-3.3422h5.066a2.7618,2.7618,0,0,0,1.1313,1.9049,3.9406,3.9406,0,0,0,2.4625.7548,3.8153,3.8153,0,0,0,2.2449-.5755,1.74,1.74,0,0,0,.8083-1.473,1.5529,1.5529,0,0,0-.9868-1.4553,18.7449,18.7449,0,0,0-3.1442-1.06,26.6839,26.6839,0,0,1-3.6473-1.1135,6.3173,6.3173,0,0,1-2.4429-1.7612,4.7206,4.7206,0,0,1-1.0243-3.1978,5.1716,5.1716,0,0,1,.9511-3.0183,6.3968,6.3968,0,0,1,2.732-2.1556,10.2419,10.2419,0,0,1,4.1863-.79A8.5448,8.5448,0,0,1,136.75,9.7189a6.5951,6.5951,0,0,1,2.3358,4.7975h-4.8144a2.6127,2.6127,0,0,0-.9886-1.887,4.4554,4.4554,0,0,0-4.4557-.1972,1.6055,1.6055,0,0,0-.737,1.4017,1.6457,1.6457,0,0,0,1.0064,1.5266,15.6188,15.6188,0,0,0,3.1263,1.06,26.4782,26.4782,0,0,1,3.5564,1.1144,6.2871,6.2871,0,0,1,2.4269,1.7782,4.8978,4.8978,0,0,1,1.06,3.18,5.2807,5.2807,0,0,1-.9529,3.09,6.2721,6.2721,0,0,1-2.73,2.1387,10.3557,10.3557,0,0,1-4.1506.7717A10.51,10.51,0,0,1,127.0477,27.6133Z"/><path class="cls-2" d="M145.9484,5.8931a3.0661,3.0661,0,0,0,2.2092-.8449,2.791,2.791,0,0,0,.88-2.1021,2.7937,2.7937,0,0,0-.88-2.1021,3.3156,3.3156,0,0,0-4.42,0,2.7937,2.7937,0,0,0-.88,2.1021,2.791,2.791,0,0,0,.88,2.1021A3.0674,3.0674,0,0,0,145.9484,5.8931Z"/><rect class="cls-1" x="143.3967" y="8.2637" width="5.0303" height="19.9063"/><path class="cls-1" d="M153.35,12.81a8.9914,8.9914,0,0,1,3.485-3.593,10.0814,10.0814,0,0,1,5.1017-1.2758,9.8163,9.8163,0,0,1,6.1278,1.85,9.0038,9.0038,0,0,1,3.2512,5.1918H165.89a3.9754,3.9754,0,0,0-1.4544-2.03,4.23,4.23,0,0,0-2.5339-.7369,4.15,4.15,0,0,0-3.4136,1.5631,6.9175,6.9175,0,0,0-1.2562,4.4379,6.8522,6.8522,0,0,0,1.2562,4.4014,4.15,4.15,0,0,0,3.4136,1.5631,3.815,3.815,0,0,0,3.9883-2.7311h5.4264a9.1922,9.1922,0,0,1-3.2691,5.1383,9.6372,9.6372,0,0,1-6.11,1.904,10.081,10.081,0,0,1-5.1017-1.275,8.9962,8.9962,0,0,1-3.485-3.5929,11.1632,11.1632,0,0,1-1.258-5.4078A11.163,11.163,0,0,1,153.35,12.81Z"/><path class="cls-1" d="M188.5983,7.15v6.2884h8.444v3.9882h-8.444v6.6471H198.12V28.17H183.568V3.0541H198.12V7.15Z"/><path class="cls-1" d="M219.4638,10.2222a8.6053,8.6053,0,0,1,2.1913,6.27V28.17h-5.03V17.1752a5.164,5.164,0,0,0-1.1866-3.6474,4.2021,4.2021,0,0,0-3.2334-1.2749,4.3016,4.3016,0,0,0-3.287,1.2749,5.1128,5.1128,0,0,0-1.2045,3.6474V28.17h-5.03V8.2637h5.03v2.48a6.9528,6.9528,0,0,1,2.57-2.03,7.9538,7.9538,0,0,1,3.4315-.737A7.6773,7.6773,0,0,1,219.4638,10.2222Z"/><path class="cls-1" d="M238.1468,8.8214a7.2054,7.2054,0,0,1,2.6589,2.2814V8.2637h5.066v20.05a10.681,10.681,0,0,1-1.1135,4.94,8.2743,8.2743,0,0,1-3.3423,3.45,10.6889,10.6889,0,0,1-5.389,1.275,11.5127,11.5127,0,0,1-6.9521-1.9763,7.3221,7.3221,0,0,1-3.0728-5.39h4.9946a3.7139,3.7139,0,0,0,1.7059,2.1744,5.9469,5.9469,0,0,0,3.18.8083,4.926,4.926,0,0,0,3.5582-1.3115,5.268,5.268,0,0,0,1.3651-3.97v-3.09a7.634,7.634,0,0,1-2.6767,2.335,7.99,7.99,0,0,1-3.899.9341A8.5465,8.5465,0,0,1,229.6315,27.2a9.01,9.01,0,0,1-3.2887-3.6474,11.7044,11.7044,0,0,1-1.2027-5.4077,11.5123,11.5123,0,0,1,1.2027-5.3533,8.8287,8.8287,0,0,1,3.2709-3.593,8.6961,8.6961,0,0,1,4.6163-1.258A8.3544,8.3544,0,0,1,238.1468,8.8214Zm1.94,6.2518a5.06,5.06,0,0,0-1.94-2.012,5.1831,5.1831,0,0,0-2.6231-.7013,5.0533,5.0533,0,0,0-4.5093,2.6776,6.25,6.25,0,0,0-.7369,3.1076,6.4569,6.4569,0,0,0,.7369,3.1442,5.2963,5.2963,0,0,0,1.94,2.0663,4.9313,4.9313,0,0,0,2.57.7183,5.1913,5.1913,0,0,0,2.6231-.7,5.0661,5.0661,0,0,0,1.94-2.012,6.4436,6.4436,0,0,0,.7192-3.1442A6.4408,6.4408,0,0,0,240.0865,15.0732Z"/><path class="cls-3" d="M253.3449,5.8931a3.0671,3.0671,0,0,0,2.2109-.8449,2.7976,2.7976,0,0,0,.88-2.1021,2.8,2.8,0,0,0-.88-2.1021,3.3154,3.3154,0,0,0-4.42,0,2.7938,2.7938,0,0,0-.88,2.1021,2.7911,2.7911,0,0,0,.88,2.1021A3.063,3.063,0,0,0,253.3449,5.8931Z"/><rect class="cls-1" x="250.7949" y="8.2637" width="5.0303" height="19.9063"/><path class="cls-1" d="M277.5633,10.2222a8.6048,8.6048,0,0,1,2.1913,6.27V28.17h-5.03V17.1752a5.1641,5.1641,0,0,0-1.1867-3.6474,4.2021,4.2021,0,0,0-3.2334-1.2749,4.3014,4.3014,0,0,0-3.2869,1.2749,5.1128,5.1128,0,0,0-1.2045,3.6474V28.17h-5.03V8.2637h5.03v2.48a6.952,6.952,0,0,1,2.57-2.03,7.9535,7.9535,0,0,1,3.4315-.737A7.6769,7.6769,0,0,1,277.5633,10.2222Z"/><path class="cls-1" d="M302.8952,19.7261H288.3431a4.9459,4.9459,0,0,0,1.5079,3.3779,4.6556,4.6556,0,0,0,3.2708,1.2215,4.1071,4.1071,0,0,0,3.9883-2.4072h5.4247a9.068,9.068,0,0,1-3.3048,4.7243,9.6456,9.6456,0,0,1-6.0011,1.85,10.3781,10.3781,0,0,1-5.1552-1.275,8.9623,8.9623,0,0,1-3.5582-3.6117,11.05,11.05,0,0,1-1.2759-5.389,11.2665,11.2665,0,0,1,1.2581-5.4255,8.7842,8.7842,0,0,1,3.5206-3.593,11.306,11.306,0,0,1,10.2945-.0366,8.6017,8.6017,0,0,1,3.485,3.4672,10.48,10.48,0,0,1,1.24,5.1561A12.012,12.012,0,0,1,302.8952,19.7261Zm-5.0678-3.3771a3.9881,3.9881,0,0,0-1.4008-3.1085,4.9661,4.9661,0,0,0-3.3422-1.1679,4.56,4.56,0,0,0-3.1424,1.1322,4.9693,4.9693,0,0,0-1.5632,3.1442Z"/><path class="cls-4" d="M1.8722,0H1.115A1.115,1.115,0,0,0,0,1.115V30.6564H2.9872V1.115A1.115,1.115,0,0,0,1.8722,0ZM7.8466,4.9564H7.0894a1.115,1.115,0,0,0-1.115,1.115v24.585H8.9616V6.0714A1.115,1.115,0,0,0,7.8466,4.9564ZM13.821,9.9046h-.7571a1.115,1.115,0,0,0-1.1151,1.115V30.6564H14.936V11.02A1.115,1.115,0,0,0,13.821,9.9046Zm5.9744,4.9482h-.7571a1.1151,1.1151,0,0,0-1.1151,1.1151V30.6564H20.91V15.9679A1.1151,1.1151,0,0,0,19.7954,14.8528ZM25.77,19.8011h-.7572a1.115,1.115,0,0,0-1.115,1.115v9.74h2.9872v-9.74A1.115,1.115,0,0,0,25.77,19.8011Zm5.9744-4.9483h-.7571a1.1152,1.1152,0,0,0-1.1151,1.1151V30.6564h2.9872V15.9679A1.1151,1.1151,0,0,0,31.7442,14.8528Zm5.9744-4.9482h-.7572a1.115,1.115,0,0,0-1.115,1.115V30.6564h2.9872V11.02A1.115,1.115,0,0,0,37.7186,9.9046ZM43.693,4.9564h-.7571a1.1151,1.1151,0,0,0-1.1151,1.115v24.585h2.9873V6.0714A1.1151,1.1151,0,0,0,43.693,4.9564ZM49.6674,0H48.91a1.115,1.115,0,0,0-1.115,1.115V30.6564h2.9872V1.115A1.1151,1.1151,0,0,0,49.6674,0Z"/></g></g></svg>