<svg xmlns="http://www.w3.org/2000/svg" xmlns:xlink="http://www.w3.org/1999/xlink" viewBox="0 0 185.52 28.18"><defs><style>.cls-1{fill:#eadfe2;}.cls-2{fill:#e9486c;}.cls-3{fill:#425ca7;}.cls-4{fill:url(#Dégradé_sans_nom_16);}</style><linearGradient id="Dégradé_sans_nom_16" y1="14.09" x2="46.68" y2="14.09" gradientUnits="userSpaceOnUse"><stop offset="0" stop-color="#e9486c"/><stop offset="1" stop-color="#425ca7"/></linearGradient></defs><g id="Calque_2" data-name="Calque 2"><g id="Calque_1-2" data-name="Calque 1"><path class="cls-1" d="M71.72,8.39V22.11H69V13.19l-3.68,8.92H63.21l-3.7-8.92v8.92H56.76V8.39h3.13l4.36,10.2,4.37-10.2Z"/><path class="cls-1" d="M84.72,11.22V22.11H82V20.74a3.72,3.72,0,0,1-1.39,1.11,4.29,4.29,0,0,1-1.86.4,4.63,4.63,0,0,1-2.26-.54,3.81,3.81,0,0,1-1.54-1.59,5.31,5.31,0,0,1-.56-2.51V11.22h2.75v6a2.82,2.82,0,0,0,.65,2,2.28,2.28,0,0,0,1.77.7,2.31,2.31,0,0,0,1.79-.7,2.82,2.82,0,0,0,.65-2v-6Z"/><path class="cls-1" d="M89.2,21.81a4.34,4.34,0,0,1-1.68-1.31,3.34,3.34,0,0,1-.68-1.83h2.78a1.49,1.49,0,0,0,.62,1,2.12,2.12,0,0,0,1.34.42,2.07,2.07,0,0,0,1.23-.32.94.94,0,0,0,.44-.8.85.85,0,0,0-.54-.8A9.8,9.8,0,0,0,91,17.63,15.14,15.14,0,0,1,89,17a3.45,3.45,0,0,1-1.34-1,2.63,2.63,0,0,1-.56-1.75,2.82,2.82,0,0,1,.52-1.66,3.6,3.6,0,0,1,1.5-1.18A5.7,5.7,0,0,1,91.41,11a4.66,4.66,0,0,1,3.1,1,3.56,3.56,0,0,1,1.28,2.62H93.16a1.42,1.42,0,0,0-.54-1,2,2,0,0,0-1.29-.39,2.05,2.05,0,0,0-1.15.28.88.88,0,0,0-.41.77.91.91,0,0,0,.55.83,8.19,8.19,0,0,0,1.72.58,15.11,15.11,0,0,1,1.94.61,3.44,3.44,0,0,1,1.33,1A2.68,2.68,0,0,1,95.89,19a2.87,2.87,0,0,1-.52,1.69,3.43,3.43,0,0,1-1.5,1.17,5.64,5.64,0,0,1-2.27.42A5.78,5.78,0,0,1,89.2,21.81Z"/><path class="cls-2" d="M99.55,9.92a1.68,1.68,0,0,0,1.21-.46,1.62,1.62,0,0,0,0-2.3,1.82,1.82,0,0,0-2.42,0,1.62,1.62,0,0,0,0,2.3A1.66,1.66,0,0,0,99.55,9.92Z"/><rect class="cls-1" x="98.15" y="11.22" width="2.75" height="10.89"/><path class="cls-1" d="M103.6,13.71a4.9,4.9,0,0,1,1.91-2,5.56,5.56,0,0,1,2.79-.7,5.38,5.38,0,0,1,3.35,1,4.93,4.93,0,0,1,1.78,2.85h-3a2.09,2.09,0,0,0-.8-1.11,2.49,2.49,0,0,0-3.25.45,3.78,3.78,0,0,0-.69,2.43,3.73,3.73,0,0,0,.69,2.4,2.25,2.25,0,0,0,1.87.86,2.09,2.09,0,0,0,2.18-1.49h3a5,5,0,0,1-1.79,2.81,5.28,5.28,0,0,1-3.34,1,5.45,5.45,0,0,1-2.79-.7,4.87,4.87,0,0,1-1.91-2,6.13,6.13,0,0,1-.69-3A6.08,6.08,0,0,1,103.6,13.71Z"/><path class="cls-1" d="M122.89,10.61v3.44h4.62v2.18h-4.62v3.64h5.21v2.24h-8V8.37h8v2.24Z"/><path class="cls-1" d="M139.78,12.29a4.7,4.7,0,0,1,1.2,3.43v6.39h-2.75v-6a2.85,2.85,0,0,0-.65-2,2.31,2.31,0,0,0-1.77-.7,2.34,2.34,0,0,0-1.8.7,2.81,2.81,0,0,0-.66,2v6H130.6V11.22h2.75v1.36a3.8,3.8,0,0,1,1.41-1.12,4.45,4.45,0,0,1,1.87-.4A4.2,4.2,0,0,1,139.78,12.29Z"/><path class="cls-1" d="M150,11.52a4,4,0,0,1,1.46,1.25V11.22h2.77v11a5.84,5.84,0,0,1-.61,2.71,4.42,4.42,0,0,1-1.83,1.88,5.78,5.78,0,0,1-2.95.7A6.31,6.31,0,0,1,145,26.4a4,4,0,0,1-1.68-2.95h2.73a2.07,2.07,0,0,0,.94,1.19,3.26,3.26,0,0,0,1.74.44,2.67,2.67,0,0,0,1.94-.72,2.86,2.86,0,0,0,.75-2.17V20.5A4.11,4.11,0,0,1,150,21.78a4.36,4.36,0,0,1-2.13.51,4.7,4.7,0,0,1-2.52-.71,5,5,0,0,1-1.8-2,6.54,6.54,0,0,1-.65-3,6.42,6.42,0,0,1,.65-2.93A4.72,4.72,0,0,1,147.86,11,4.56,4.56,0,0,1,150,11.52ZM151.07,15a2.81,2.81,0,0,0-2.5-1.49,2.92,2.92,0,0,0-1.42.37,2.86,2.86,0,0,0-1.05,1.1,3.37,3.37,0,0,0-.4,1.7,3.52,3.52,0,0,0,.4,1.72,2.9,2.9,0,0,0,1.06,1.13,2.73,2.73,0,0,0,1.41.39,2.83,2.83,0,0,0,2.5-1.48,3.58,3.58,0,0,0,.39-1.72A3.53,3.53,0,0,0,151.07,15Z"/><path class="cls-3" d="M158.32,9.92a1.66,1.66,0,0,0,1.21-.46,1.62,1.62,0,0,0,0-2.3,1.82,1.82,0,0,0-2.42,0,1.62,1.62,0,0,0,0,2.3A1.68,1.68,0,0,0,158.32,9.92Z"/><rect class="cls-1" x="156.93" y="11.22" width="2.75" height="10.89"/><path class="cls-1" d="M171.58,12.29a4.74,4.74,0,0,1,1.2,3.43v6.39H170v-6a2.8,2.8,0,0,0-.65-2,2.28,2.28,0,0,0-1.77-.7,2.34,2.34,0,0,0-1.8.7,2.8,2.8,0,0,0-.65,2v6h-2.76V11.22h2.76v1.36a3.68,3.68,0,0,1,1.4-1.12,4.49,4.49,0,0,1,1.88-.4A4.2,4.2,0,0,1,171.58,12.29Z"/><path class="cls-1" d="M185.44,17.49h-8a2.71,2.71,0,0,0,.82,1.85,2.54,2.54,0,0,0,1.79.67,2.24,2.24,0,0,0,2.18-1.32h3a5,5,0,0,1-1.81,2.59,5.29,5.29,0,0,1-3.28,1,5.62,5.62,0,0,1-2.82-.7,4.87,4.87,0,0,1-2-2,6,6,0,0,1-.7-2.95,6.15,6.15,0,0,1,.69-3,4.76,4.76,0,0,1,1.93-2,5.73,5.73,0,0,1,2.85-.69,5.8,5.8,0,0,1,2.78.67,4.72,4.72,0,0,1,1.91,1.9,5.77,5.77,0,0,1,.68,2.82A6.73,6.73,0,0,1,185.44,17.49Zm-2.77-1.85a2.22,2.22,0,0,0-.77-1.7,2.76,2.76,0,0,0-1.83-.64,2.52,2.52,0,0,0-1.72.62,2.76,2.76,0,0,0-.86,1.72Z"/><path class="cls-4" d="M1.63,0H1.12A1.12,1.12,0,0,0,0,1.12V28.18H2.75V1.12A1.12,1.12,0,0,0,1.63,0ZM7.12,4.56H6.61A1.11,1.11,0,0,0,5.49,5.67V28.18H8.24V5.67A1.11,1.11,0,0,0,7.12,4.56ZM12.61,9.1H12.1A1.12,1.12,0,0,0,11,10.22v18h2.75v-18A1.12,1.12,0,0,0,12.61,9.1Zm5.49,4.55h-.51a1.12,1.12,0,0,0-1.12,1.12V28.18h2.75V14.77A1.12,1.12,0,0,0,18.1,13.65Zm5.5,4.55h-.52A1.11,1.11,0,0,0,22,19.31v8.87h2.74V19.31A1.11,1.11,0,0,0,23.6,18.2Zm5.49-4.55h-.52a1.12,1.12,0,0,0-1.11,1.12V28.18H30.2V14.77A1.12,1.12,0,0,0,29.09,13.65ZM34.58,9.1h-.52A1.12,1.12,0,0,0,33,10.22v18h2.74v-18A1.12,1.12,0,0,0,34.58,9.1Zm5.49-4.54h-.52a1.11,1.11,0,0,0-1.11,1.11V28.18h2.74V5.67A1.1,1.1,0,0,0,40.07,4.56ZM45.56,0h-.51a1.12,1.12,0,0,0-1.12,1.12V28.18h2.75V1.12A1.12,1.12,0,0,0,45.56,0Z"/></g></g></svg>